<?xml version="1.0" encoding="UTF-8"?>
<svg xmlns="http://www.w3.org/2000/svg" xmlns:xlink="http://www.w3.org/1999/xlink" width="100px" height="100px" viewBox="0 0 100 100" version="1.1">
<g id="surface1">
<rect x="0" y="0" width="100" height="100" style="fill:rgb(100%,100%,100%);fill-opacity:1;stroke:none;"/>
<path style=" stroke:none;fill-rule:evenodd;fill:rgb(84.313725%,43.529412%,17.254902%);fill-opacity:1;" d="M 1.46875 49.847656 L 7.304688 49.847656 L 7.304688 51.972656 L 5.503906 51.972656 L 5.503906 55.527344 L 12.078125 55.527344 L 12.078125 51.972656 L 10.21875 51.972656 L 10.21875 49.847656 L 16.164062 49.847656 L 16.164062 51.972656 L 14.253906 51.972656 L 14.253906 62.421875 L 16.164062 62.421875 L 16.164062 64.488281 L 10.21875 64.488281 L 10.21875 62.421875 L 12.078125 62.421875 L 12.078125 57.59375 L 5.503906 57.59375 L 5.503906 62.421875 L 7.304688 62.421875 L 7.304688 64.488281 L 1.46875 64.488281 L 1.46875 62.421875 L 3.324219 62.421875 L 3.324219 51.972656 L 1.46875 51.972656 Z M 71.269531 49.847656 L 83.257812 49.847656 L 83.257812 53.9375 L 81.242188 53.9375 L 81.242188 51.972656 L 75.40625 51.972656 L 75.40625 55.472656 L 80.390625 55.472656 L 80.390625 57.539062 L 75.40625 57.539062 L 75.40625 62.421875 L 81.1875 62.421875 L 81.1875 59.609375 L 83.304688 59.609375 L 83.304688 64.488281 L 71.269531 64.488281 L 71.269531 62.421875 L 73.234375 62.421875 L 73.234375 51.972656 L 71.269531 51.972656 Z M 18.867188 49.847656 L 30.90625 49.847656 L 30.90625 53.9375 L 28.835938 53.9375 L 28.835938 51.972656 L 23.003906 51.972656 L 23.003906 55.472656 L 27.988281 55.472656 L 27.988281 57.539062 L 23.003906 57.539062 L 23.003906 62.421875 L 28.785156 62.421875 L 28.785156 59.609375 L 30.90625 59.609375 L 30.90625 64.488281 L 18.867188 64.488281 L 18.867188 62.421875 L 20.828125 62.421875 L 20.828125 51.972656 L 18.867188 51.972656 Z M 74.769531 47.890625 L 79.0625 47.890625 L 80.125 49.160156 L 75.9375 49.160156 Z M 95.03125 56.109375 C 93.546875 55.738281 92.535156 55.789062 90.996094 55.3125 C 89.671875 54.839844 89.410156 54.039062 89.410156 53.511719 C 89.410156 52.925781 89.992188 51.492188 92.109375 51.492188 C 94.234375 51.492188 95.664062 52.925781 95.71875 54.144531 L 97.789062 54.144531 L 97.789062 49.847656 L 95.773438 49.847656 L 95.773438 50.804688 L 95.878906 51.070312 L 95.878906 51.125 L 95.878906 51.070312 C 95.824219 51.070312 95.773438 50.914062 95.554688 50.75 L 95.554688 50.699219 C 94.976562 50.171875 93.753906 49.53125 91.953125 49.53125 C 89.78125 49.53125 87.230469 50.914062 87.230469 53.511719 C 87.230469 56.054688 89.03125 56.90625 90.625 57.328125 C 92.164062 57.753906 92.960938 57.753906 94.289062 58.125 C 95.554688 58.441406 96.40625 59.238281 96.40625 60.40625 C 96.40625 61.464844 95.71875 62.894531 92.960938 62.894531 C 90.253906 62.894531 89.140625 61.410156 88.824219 59.34375 L 86.859375 59.34375 L 86.859375 64.488281 L 88.875 64.488281 L 88.875 63.535156 L 88.824219 63.265625 C 88.824219 63.265625 88.875 63.429688 89.140625 63.585938 L 89.140625 63.636719 C 90.148438 64.433594 91.527344 64.964844 93.222656 64.964844 C 95.1875 64.964844 98.53125 63.960938 98.53125 60.460938 C 98.53125 57.914062 97.203125 56.75 95.03125 56.109375 Z M 66.546875 62.421875 L 66.546875 51.972656 L 68.511719 51.972656 L 68.511719 49.847656 L 63.207031 49.847656 L 59.652344 58.441406 L 59.601562 58.867188 L 59.492188 58.441406 L 55.992188 49.847656 L 50.632812 49.847656 L 50.632812 51.972656 L 52.597656 51.972656 L 52.597656 62.421875 L 50.632812 62.421875 L 50.632812 64.488281 L 56.632812 64.488281 L 56.632812 62.421875 L 54.769531 62.421875 L 54.769531 52.183594 L 54.929688 52.660156 L 59.019531 62.421875 L 60.1875 62.421875 L 64.265625 52.660156 L 64.375 52.128906 L 64.429688 52.714844 L 64.429688 62.421875 L 62.570312 62.421875 L 62.570312 64.488281 L 68.511719 64.488281 L 68.511719 62.421875 Z M 23.796875 44.226562 L 21.78125 44.226562 L 21.78125 43.703125 L 23.273438 43.703125 C 23.320312 43.804688 23.640625 44.066406 23.796875 44.226562 Z M 74.449219 44.226562 C 74.449219 44.019531 74.664062 43.804688 74.925781 43.703125 L 75.992188 43.703125 L 75.992188 44.226562 Z M 41.140625 44.601562 C 40.238281 45.023438 39.125 44.96875 38.226562 44.601562 L 27.671875 44.601562 C 26.65625 45.023438 25.507812 45.023438 24.488281 44.601562 L 21.78125 44.601562 L 21.78125 45.605469 L 75.992188 45.605469 L 75.992188 44.601562 Z M 28.304688 44.226562 C 28.46875 44.121094 28.835938 43.75 28.890625 43.703125 L 37.0625 43.703125 C 37.164062 43.859375 37.429688 44.121094 37.585938 44.226562 Z M 39.710938 43.910156 C 41.089844 43.910156 42.257812 42.742188 42.257812 41.363281 C 42.257812 39.929688 41.089844 38.765625 39.710938 38.765625 C 38.277344 38.769531 37.113281 39.929688 37.113281 41.363281 C 37.113281 42.742188 38.28125 43.910156 39.710938 43.910156 L 39.710938 44.4375 C 37.960938 44.4375 36.582031 43.0625 36.582031 41.363281 C 36.582031 39.613281 37.960938 38.238281 39.710938 38.238281 C 41.40625 38.238281 42.789062 39.613281 42.789062 41.363281 C 42.78125 43.0625 41.410156 44.4375 39.710938 44.4375 Z M 29.578125 40.941406 C 29.578125 39.03125 27.988281 37.441406 26.078125 37.441406 C 24.117188 37.441406 22.578125 39.03125 22.578125 40.941406 C 22.578125 42.90625 24.117188 44.445312 26.078125 44.445312 C 27.988281 44.445312 29.578125 42.90625 29.578125 40.941406 L 29 40.941406 C 29 42.582031 27.671875 43.910156 26.078125 43.910156 C 25.292969 43.910156 24.535156 43.597656 23.980469 43.042969 C 23.421875 42.484375 23.109375 41.726562 23.109375 40.941406 C 23.109375 39.296875 24.433594 38.023438 26.078125 38.023438 C 26.855469 38.023438 27.597656 38.328125 28.144531 38.875 C 28.691406 39.421875 29 40.164062 29 40.941406 Z M 29.578125 40.941406 "/>
<path style=" stroke:none;fill-rule:evenodd;fill:rgb(84.313725%,43.529412%,17.254902%);fill-opacity:1;" d="M 41.351562 43.117188 L 40.292969 41.894531 L 40.292969 41.839844 C 40.347656 41.789062 40.347656 41.734375 40.398438 41.683594 L 41.992188 42.109375 C 42.046875 42.109375 42.148438 42.15625 42.148438 42.210938 C 42.148438 42.15625 42.203125 41.949219 42.257812 41.839844 C 42.203125 41.894531 42.101562 41.894531 41.992188 41.894531 L 40.507812 41.46875 C 40.453125 41.46875 40.453125 41.414062 40.453125 41.414062 L 40.453125 41.152344 L 41.992188 40.566406 C 41.992188 40.566406 42.148438 40.566406 42.148438 40.621094 C 42.148438 40.566406 42.046875 40.304688 42.046875 40.25 C 42.046875 40.304688 41.9375 40.410156 41.882812 40.410156 L 41.992188 40.355469 L 40.398438 40.9375 C 40.398438 40.992188 40.398438 40.9375 40.347656 40.9375 C 40.34375 40.882812 40.296875 40.835938 40.238281 40.835938 C 40.238281 40.78125 40.191406 40.726562 40.238281 40.726562 L 41.089844 39.398438 C 41.140625 39.351562 41.25 39.296875 41.304688 39.296875 C 41.25 39.296875 41.035156 39.136719 40.933594 39.082031 C 40.984375 39.082031 40.984375 39.242188 40.933594 39.296875 L 40.082031 40.621094 L 39.976562 40.621094 C 39.976562 40.621094 39.867188 40.566406 39.8125 40.566406 C 39.8125 40.566406 39.765625 40.566406 39.765625 40.511719 L 39.710938 38.976562 C 39.710938 38.871094 39.710938 38.765625 39.8125 38.765625 L 39.394531 38.765625 C 39.445312 38.765625 39.496094 38.925781 39.496094 38.976562 L 39.550781 40.511719 C 39.550781 40.566406 39.496094 40.566406 39.496094 40.566406 C 39.496094 40.566406 39.394531 40.621094 39.339844 40.671875 C 39.339844 40.671875 39.289062 40.671875 39.289062 40.621094 L 38.28125 39.398438 C 38.226562 39.351562 38.226562 39.242188 38.226562 39.1875 C 38.171875 39.242188 37.960938 39.398438 37.90625 39.453125 C 37.960938 39.453125 38.066406 39.507812 38.121094 39.5625 L 39.125 40.78125 L 39.125 40.835938 C 39.070312 40.835938 39.019531 40.9375 39.019531 40.992188 C 39.019531 40.992188 38.96875 41.046875 38.914062 41.046875 L 37.429688 40.621094 C 37.324219 40.566406 37.269531 40.511719 37.269531 40.464844 C 37.269531 40.511719 37.164062 40.78125 37.164062 40.835938 C 37.164062 40.835938 37.324219 40.78125 37.378906 40.835938 L 38.863281 41.207031 C 38.914062 41.207031 38.914062 41.257812 38.914062 41.257812 L 38.914062 41.523438 L 37.429688 42.15625 C 37.378906 42.15625 37.269531 42.210938 37.269531 42.15625 C 37.269531 42.210938 37.324219 42.425781 37.378906 42.53125 C 37.378906 42.476562 37.480469 42.375 37.535156 42.375 L 38.96875 41.734375 C 39.019531 41.734375 39.019531 41.789062 39.019531 41.789062 C 39.070312 41.789062 39.125 41.839844 39.125 41.894531 C 39.179688 41.894531 39.179688 41.949219 39.179688 41.949219 L 38.277344 43.273438 C 38.222656 43.324219 38.171875 43.378906 38.121094 43.378906 C 38.171875 43.433594 38.382812 43.59375 38.4375 43.59375 C 38.382812 43.59375 38.4375 43.433594 38.4375 43.378906 L 39.339844 42.109375 C 39.339844 42.054688 39.390625 42.054688 39.390625 42.054688 C 39.445312 42.109375 39.496094 42.109375 39.550781 42.109375 C 39.605469 42.109375 39.605469 42.109375 39.605469 42.15625 L 39.710938 43.75 C 39.710938 43.804688 39.65625 43.910156 39.605469 43.910156 L 40.03125 43.910156 C 39.921875 43.910156 39.921875 43.804688 39.921875 43.695312 L 39.8125 42.15625 C 39.8125 42.109375 39.867188 42.109375 39.867188 42.109375 C 39.921875 42.109375 40.03125 42.054688 40.082031 42 C 40.082031 42 40.136719 42 40.136719 42.054688 L 41.195312 43.222656 C 41.195312 43.273438 41.25 43.378906 41.25 43.433594 L 41.515625 43.167969 C 41.460938 43.222656 41.351562 43.117188 41.351562 43.117188 Z M 25.972656 38.925781 C 27.460938 38.925781 28.945312 39.082031 29.796875 39.351562 C 29.898438 39.351562 29.898438 39.453125 29.796875 39.507812 C 28.890625 39.722656 27.40625 39.878906 26.023438 39.878906 C 24.648438 39.929688 23.164062 39.878906 22.207031 39.667969 C 22.101562 39.667969 22.101562 39.5625 22.207031 39.5625 C 23.054688 39.242188 24.488281 38.980469 25.972656 38.925781 L 25.972656 38.664062 C 24.382812 38.710938 22.792969 39.082031 21.464844 39.5625 C 21.308594 39.613281 21.308594 39.722656 21.464844 39.722656 C 22.949219 40.09375 24.488281 40.148438 26.023438 40.09375 C 27.507812 40.039062 29.101562 39.929688 30.539062 39.507812 C 30.746094 39.453125 30.695312 39.351562 30.585938 39.351562 C 29.09375 38.890625 27.539062 38.664062 25.972656 38.65625 Z M 25.972656 38.925781 "/>
<path style=" stroke:none;fill-rule:evenodd;fill:rgb(84.313725%,43.529412%,17.254902%);fill-opacity:1;" d="M 41.726562 37.96875 C 41.351562 38.078125 40.71875 38.285156 40.398438 38.285156 C 40.136719 38.285156 38.808594 38.238281 37.90625 38.285156 C 36.6875 38.339844 36.582031 38.5 36.527344 38.394531 C 36.265625 37.96875 36.050781 37.335938 35.625 36.960938 C 33.132812 37.386719 30.695312 37.015625 28.46875 36.21875 L 28.46875 35.902344 C 28.628906 35.957031 28.730469 35.957031 28.835938 35.957031 C 28.46875 35.425781 27.832031 35.265625 27.460938 34.683594 C 27.246094 34.523438 27.191406 34.203125 26.984375 34.042969 C 27.035156 34.628906 26.558594 35.054688 26.503906 35.53125 C 26.820312 35.632812 27.246094 35.632812 27.40625 35.582031 C 27.617188 35.53125 27.886719 35.582031 27.988281 35.742188 C 28.148438 35.796875 28.257812 35.902344 28.46875 35.902344 L 28.46875 36.21875 C 28.203125 36.167969 28.148438 36.113281 27.933594 36.007812 C 27.671875 36.113281 27.460938 36.058594 27.351562 35.957031 C 27.300781 35.902344 26.765625 35.902344 26.558594 35.902344 C 25.867188 35.902344 25.125 36.167969 24.757812 36.753906 C 24.59375 37.070312 24.648438 37.441406 24.804688 37.703125 C 24.914062 37.867188 25.390625 38.554688 25.707031 38.765625 L 25.28125 38.871094 C 24.648438 38.285156 24.171875 37.757812 24.277344 37.070312 C 24.59375 35.585938 25.972656 35.796875 26.347656 35.160156 C 26.609375 34.574219 26.714844 32.882812 26.398438 32.402344 C 25.5 32.03125 24.382812 31.554688 24.171875 30.492188 C 24.117188 30.226562 24.222656 29.90625 24.488281 29.851562 C 24.964844 29.75 25.28125 30.015625 25.65625 30.175781 C 25.816406 30.070312 25.5 29.695312 25.867188 29.695312 C 26.347656 29.695312 26.664062 30.648438 26.820312 30.703125 L 26.765625 31.074219 C 26.449219 30.972656 25.28125 30.332031 25.179688 30.277344 C 24.964844 30.175781 24.703125 30.015625 24.539062 30.226562 C 24.332031 30.492188 24.59375 30.8125 24.757812 31.074219 C 27.246094 33.671875 31.382812 30.917969 34.085938 32.773438 C 34.140625 32.613281 34.085938 32.558594 33.984375 32.507812 C 32.125 30.757812 29.15625 31.660156 26.765625 31.074219 L 26.820312 30.703125 C 29.796875 31.445312 33.714844 30.230469 35.253906 33.625 C 36.265625 35.054688 37.324219 37.335938 39.496094 37.386719 C 41.25 37.441406 42.417969 36.753906 43.261719 35.476562 C 44.429688 33.355469 45.121094 30.917969 47.1875 29.488281 C 47.402344 29.378906 47.503906 29.488281 47.402344 29.535156 C 46.390625 30.546875 45.492188 31.871094 45.015625 32.984375 C 45.8125 36.011719 47.558594 35.371094 47.984375 35.316406 C 47.875 34.203125 47.984375 30.917969 50.371094 30.121094 C 51.78125 29.03125 53.675781 28.808594 55.304688 29.535156 C 53.445312 31.289062 52.335938 33.78125 51.960938 35.53125 L 49.890625 36.113281 C 50.054688 35.796875 50.054688 35.265625 50 34.683594 C 49.789062 34.789062 49.574219 34.945312 49.097656 35.214844 C 48.886719 35.265625 49.042969 34.945312 49.042969 34.945312 C 49.042969 34.84375 49.574219 34.628906 50 34.367188 C 49.839844 33.144531 49.734375 31.554688 50.742188 30.546875 C 48.671875 31.234375 49.257812 35.585938 49.46875 36.113281 C 48.886719 36.382812 48.089844 36.382812 48.089844 36.382812 L 47.984375 35.640625 C 47.078125 35.957031 45.542969 35.742188 44.851562 33.355469 C 44.109375 34.890625 43.476562 37.335938 41.726562 37.96875 Z M 74.082031 31.5 C 73.976562 31.390625 73.921875 31.34375 73.8125 31.34375 C 73.757812 31.289062 73.8125 31.234375 73.867188 31.234375 C 73.921875 31.179688 74.027344 31.234375 74.082031 31.34375 C 74.132812 31.390625 74.132812 31.5 74.082031 31.5 Z M 74.082031 31.5 "/>
<path style=" stroke:none;fill-rule:evenodd;fill:rgb(84.313725%,43.529412%,17.254902%);fill-opacity:1;" d="M 26.609375 41.738281 L 27.726562 43.007812 C 27.832031 43.117188 27.832031 43.277344 27.777344 43.328125 C 27.933594 43.277344 28.148438 43.007812 28.25 42.90625 C 28.203125 42.953125 27.988281 42.953125 27.933594 42.851562 L 26.765625 41.578125 L 26.765625 41.46875 L 26.820312 41.414062 C 26.820312 41.363281 26.875 41.363281 26.875 41.363281 L 28.519531 41.949219 C 28.675781 42.054688 28.730469 42.15625 28.730469 42.210938 C 28.785156 42.109375 28.890625 41.792969 28.945312 41.683594 C 28.890625 41.738281 28.730469 41.792969 28.628906 41.738281 L 26.984375 41.152344 C 26.929688 41.152344 26.929688 41.152344 26.929688 41.097656 L 26.929688 40.996094 C 26.929688 40.941406 26.984375 40.941406 26.984375 40.941406 L 28.675781 40.671875 C 28.890625 40.621094 29 40.726562 29 40.78125 C 29 40.671875 28.945312 40.304688 28.945312 40.199219 C 28.945312 40.25 28.835938 40.410156 28.628906 40.464844 L 26.984375 40.726562 C 26.929688 40.726562 26.929688 40.671875 26.929688 40.671875 C 26.875 40.621094 26.875 40.570312 26.820312 40.515625 L 26.820312 40.464844 L 28.148438 39.351562 C 28.304688 39.242188 28.46875 39.242188 28.519531 39.296875 C 28.414062 39.1875 28.203125 38.925781 28.09375 38.820312 C 28.148438 38.871094 28.09375 39.03125 27.988281 39.1875 L 26.714844 40.25 C 26.664062 40.304688 26.664062 40.304688 26.664062 40.25 C 26.609375 40.25 26.558594 40.25 26.503906 40.195312 C 26.503906 40.195312 26.449219 40.148438 26.503906 40.148438 L 27.089844 38.5 C 27.128906 38.382812 27.230469 38.300781 27.351562 38.285156 C 27.246094 38.238281 26.875 38.078125 26.765625 38.078125 C 26.820312 38.078125 26.929688 38.285156 26.875 38.445312 L 26.289062 40.039062 C 26.289062 40.09375 26.242188 40.09375 26.242188 40.09375 L 26.078125 40.09375 L 26.023438 40.039062 L 25.707031 38.339844 C 25.707031 38.128906 25.816406 38.023438 25.816406 38.023438 C 25.707031 38.023438 25.390625 38.078125 25.230469 38.128906 C 25.28125 38.128906 25.445312 38.238281 25.492188 38.394531 L 25.816406 40.039062 C 25.816406 40.09375 25.816406 40.09375 25.761719 40.148438 C 25.707031 40.148438 25.65625 40.199219 25.601562 40.199219 L 25.546875 40.199219 L 24.382812 38.925781 C 24.277344 38.765625 24.277344 38.609375 24.332031 38.609375 C 24.222656 38.664062 23.960938 38.871094 23.90625 38.980469 C 23.960938 38.980469 24.117188 38.980469 24.222656 39.082031 L 25.390625 40.355469 L 25.390625 40.410156 L 25.28125 40.515625 L 25.230469 40.515625 L 23.640625 39.929688 C 23.480469 39.878906 23.375 39.722656 23.429688 39.667969 C 23.320312 39.828125 23.273438 40.148438 23.21875 40.253906 C 23.273438 40.199219 23.429688 40.148438 23.589844 40.199219 L 25.179688 40.726562 L 25.179688 40.996094 L 23.480469 41.3125 C 23.320312 41.3125 23.164062 41.207031 23.164062 41.152344 C 23.164062 41.3125 23.21875 41.683594 23.273438 41.789062 C 23.273438 41.734375 23.320312 41.578125 23.535156 41.523438 L 25.179688 41.207031 C 25.179688 41.207031 25.234375 41.207031 25.234375 41.257812 C 25.234375 41.3125 25.234375 41.3125 25.28125 41.367188 L 25.28125 41.414062 L 23.960938 42.480469 C 23.796875 42.636719 23.640625 42.582031 23.640625 42.535156 C 23.640625 42.691406 23.90625 42.953125 23.960938 43.007812 C 23.960938 42.953125 23.960938 42.796875 24.066406 42.691406 L 25.445312 41.632812 C 25.445312 41.578125 25.445312 41.578125 25.5 41.632812 L 25.605469 41.738281 C 25.660156 41.738281 25.660156 41.738281 25.660156 41.792969 L 25.074219 43.378906 C 25.019531 43.539062 24.863281 43.648438 24.808594 43.59375 C 24.917969 43.648438 25.234375 43.804688 25.390625 43.804688 C 25.289062 43.804688 25.234375 43.648438 25.289062 43.484375 L 25.867188 41.839844 C 25.867188 41.839844 25.867188 41.792969 25.921875 41.792969 C 25.976562 41.839844 26.03125 41.839844 26.085938 41.839844 C 26.085938 41.839844 26.132812 41.839844 26.132812 41.894531 L 26.453125 43.539062 C 26.453125 43.75 26.347656 43.859375 26.292969 43.910156 C 26.453125 43.910156 26.773438 43.804688 26.878906 43.75 C 26.828125 43.804688 26.664062 43.648438 26.664062 43.539062 L 26.347656 41.839844 L 26.347656 41.792969 C 26.402344 41.792969 26.453125 41.738281 26.507812 41.738281 C 26.558594 41.683594 26.558594 41.683594 26.609375 41.738281 Z M 73.335938 31.714844 C 73.28125 31.660156 73.335938 31.605469 73.335938 31.554688 C 73.390625 31.390625 73.441406 31.390625 73.441406 31.234375 C 73.179688 31.019531 73.125 30.59375 73.28125 30.492188 C 73.441406 30.332031 73.976562 30.546875 73.976562 30.546875 C 74.449219 30.175781 74.609375 29.90625 74.875 29.75 C 75.242188 29.75 75.984375 30.4375 75.984375 30.863281 C 75.882812 31.019531 75.617188 31.289062 75.191406 31.816406 C 75.351562 32.1875 75.351562 32.457031 75.085938 32.664062 C 75.035156 32.664062 74.925781 32.664062 74.820312 32.558594 C 74.875 33.089844 75.460938 33.40625 75.667969 33.832031 C 75.667969 34.683594 76.570312 35.742188 75.5625 36.429688 C 75.351562 36.539062 75.136719 36.699219 75.035156 36.910156 C 75.195312 37.757812 75.511719 38.664062 75.667969 39.5625 L 74.664062 39.613281 C 74.554688 39.929688 74.238281 40.515625 74.34375 40.835938 C 74.34375 40.835938 74.292969 40.78125 74.398438 40.835938 C 74.554688 41.046875 74.609375 42.796875 74.554688 42.953125 C 74.554688 43.167969 74.71875 43.167969 74.609375 43.539062 C 74.5 43.59375 74.082031 43.859375 74.027344 44.019531 C 73.757812 44.28125 73.015625 44.335938 73.015625 44.226562 C 73.015625 43.964844 73.550781 43.648438 73.65625 43.324219 C 73.757812 42.054688 73.65625 40.78125 72.96875 39.773438 C 72.699219 39.613281 72.492188 40.039062 72.328125 40.25 C 72.597656 41.046875 73.070312 41.894531 73.015625 42.796875 C 73.015625 43.0625 73.339844 43.433594 73.179688 43.804688 L 72.328125 44.226562 L 69.253906 44.226562 C 69.148438 44.066406 68.9375 43.910156 68.988281 43.695312 L 71.75 43.695312 C 71.75 43.59375 72.011719 43.648438 72.273438 43.222656 C 72.273438 41.949219 70.953125 40.09375 71.164062 39.453125 C 71.425781 38.65625 71.800781 38.023438 72.222656 36.960938 L 72.4375 36.910156 C 71.957031 38.5 71.269531 39.296875 71.375 39.773438 C 71.425781 40.039062 71.53125 40.25 71.695312 40.570312 L 71.796875 40.890625 C 71.851562 41.046875 72.011719 41.414062 72.117188 41.523438 C 72.273438 41.523438 72.382812 41.414062 72.492188 41.363281 C 72.492188 41.152344 72.328125 40.890625 72.222656 40.726562 L 71.796875 40.890625 L 71.695312 40.570312 C 72.011719 40.570312 72.222656 40.355469 71.957031 40.195312 C 72.699219 39.824219 71.796875 39.929688 72.066406 39.773438 C 72.492188 39.5625 72.699219 38.765625 72.753906 38.285156 C 72.753906 38.183594 72.808594 38.128906 72.914062 38.128906 C 73.234375 38.980469 73.234375 40.09375 73.757812 40.890625 L 73.757812 41.152344 C 73.707031 41.363281 73.757812 41.632812 73.867188 41.789062 C 74.34375 41.839844 74.292969 41.734375 74.183594 41.152344 C 74.082031 41.152344 73.867188 41.097656 73.757812 41.152344 L 73.757812 40.890625 C 73.8125 40.835938 74.027344 40.890625 74.082031 40.835938 C 73.921875 40.570312 73.921875 40.355469 73.921875 40.09375 C 73.921875 39.929688 74.027344 39.613281 74.132812 40.304688 C 74.292969 40.355469 74.554688 39.082031 74.609375 38.664062 C 73.601562 38.871094 74.609375 37.703125 73.867188 37.652344 L 74.238281 37.015625 C 74.238281 36.800781 74.082031 36.644531 73.8125 36.753906 L 73.601562 36.484375 C 73.441406 36.429688 73.285156 36.167969 73.070312 36.007812 C 72.914062 36.167969 72.648438 36.484375 72.59375 36.699219 C 72.542969 36.753906 72.699219 36.800781 72.753906 36.753906 C 72.914062 36.59375 73.015625 36.910156 73.285156 36.855469 C 73.390625 36.753906 73.707031 36.699219 73.601562 36.484375 L 73.8125 36.753906 C 73.601562 36.855469 73.601562 37.226562 73.601562 37.496094 C 73.234375 38.183594 73.390625 37.125 72.964844 37.125 C 72.699219 37.28125 72.59375 36.855469 72.4375 36.910156 L 72.222656 36.960938 C 72.222656 36.59375 72.273438 36.167969 72.222656 35.742188 C 72.542969 33.941406 72.914062 33.992188 72.964844 33.460938 C 72.964844 33.25 73.757812 32.828125 73.710938 32.613281 C 73.757812 32.613281 73.867188 32.773438 73.867188 32.828125 C 73.8125 33.089844 73.285156 33.089844 73.339844 33.671875 C 73.65625 33.089844 74.5625 33.144531 74.609375 32.457031 C 74.453125 32.03125 74.824219 32.296875 74.824219 31.871094 C 74.71875 31.761719 74.398438 31.445312 74.34375 31.289062 C 74.292969 31.234375 74.507812 30.917969 73.757812 30.917969 C 73.710938 30.96875 73.65625 31.289062 73.550781 31.445312 C 73.496094 31.5 73.390625 31.605469 73.441406 31.660156 C 73.441406 31.710938 73.550781 31.761719 73.550781 31.976562 C 73.496094 32.1875 73.550781 32.296875 73.65625 32.402344 C 74.082031 32.613281 74.398438 32.402344 73.921875 32.664062 C 73.921875 32.71875 73.921875 32.773438 73.867188 32.828125 C 73.867188 32.773438 73.710938 32.558594 73.65625 32.503906 C 73.601562 32.503906 73.339844 32.347656 73.390625 32.132812 C 73.441406 31.921875 73.441406 31.816406 73.335938 31.714844 Z M 59.066406 29.695312 C 59.121094 30.070312 58.910156 30.332031 58.910156 30.703125 C 59.28125 31.605469 58.910156 32.296875 59.015625 33.144531 C 58.59375 32.882812 58.484375 32.1875 58.324219 31.445312 C 58.222656 30.8125 58.378906 30.601562 58.433594 29.90625 Z M 57.953125 29.960938 C 57.898438 31.074219 57.742188 31.605469 58.539062 33.355469 C 56.523438 34.203125 54.878906 34.789062 52.496094 35.476562 C 52.757812 33.78125 54.40625 30.546875 55.78125 29.644531 C 56.949219 29.960938 57.953125 29.960938 57.953125 29.960938 Z M 57.953125 29.960938 "/>
<path style=" stroke:none;fill-rule:evenodd;fill:rgb(84.313725%,43.529412%,17.254902%);fill-opacity:1;" d="M 52.757812 42.425781 C 52.226562 42.582031 52.226562 42.90625 52.542969 43.222656 C 52.757812 43.378906 52.96875 43.648438 52.96875 43.703125 L 49.574219 43.703125 C 49.574219 43.859375 49.734375 43.964844 49.839844 44.226562 L 68.617188 44.226562 C 68.71875 43.964844 68.402344 43.648438 68.296875 43.324219 C 66.972656 42.851562 66.972656 41.632812 66.917969 40.25 C 66.917969 40.195312 66.8125 40.039062 66.8125 39.773438 C 66.65625 39.5625 65.75 37.386719 66.175781 35.632812 L 66.492188 35.054688 C 66.757812 34.683594 66.441406 34.46875 66.65625 34.042969 L 70.578125 33.300781 C 70.628906 33.246094 70.628906 33.089844 70.527344 33.039062 C 70.527344 32.984375 70.578125 33.039062 70.527344 33.039062 L 66.710938 33.726562 C 66.917969 32.773438 66.070312 32.457031 66.441406 31.660156 C 66.972656 32.242188 68.402344 33.246094 69.144531 33.40625 L 69.515625 33.355469 C 68.5625 32.929688 66.867188 31.921875 65.914062 30.601562 C 65.804688 30.601562 65.699219 30.492188 65.59375 30.4375 C 65.59375 30.546875 65.859375 30.863281 65.804688 30.917969 C 65.804688 30.917969 65.171875 31.34375 64.003906 30.8125 C 63.632812 31.554688 59.492188 33.40625 59.492188 33.40625 C 59.652344 34.574219 60.1875 35.316406 60.765625 35.957031 C 60.820312 36.058594 60.605469 35.851562 60.765625 35.957031 C 61.617188 36.644531 62.621094 36.960938 63.734375 37.171875 C 63.949219 37.8125 64.746094 39.878906 64.800781 40.195312 C 64.902344 40.515625 65.0625 40.515625 65.0625 40.515625 C 65.171875 40.621094 65.542969 41.3125 65.542969 41.578125 L 65.644531 42.691406 C 65.699219 42.953125 66.015625 42.742188 66.070312 43.007812 L 65.914062 43.695312 L 66.710938 43.695312 C 66.285156 43.324219 66.546875 42.691406 66.015625 42.425781 C 65.960938 41.789062 65.914062 41.308594 65.644531 41.046875 C 65.433594 40.410156 64.746094 38.710938 64.320312 37.171875 L 64.585938 36.800781 C 63.417969 37.117188 62.519531 36.695312 61.453125 36.113281 C 60.660156 35.742188 61.136719 36.058594 61.402344 35.898438 C 62.675781 36.484375 63.3125 36.324219 64.265625 36.21875 C 64.375 36.375 64.585938 36.539062 64.585938 36.800781 L 64.320312 37.171875 C 64.585938 36.910156 64.796875 37.066406 64.957031 37.8125 C 65.164062 38.445312 65.382812 38.925781 65.539062 39.453125 C 65.75 39.984375 65.914062 40.671875 66.070312 41.046875 C 66.070312 41.046875 66.230469 41.046875 66.332031 41.257812 C 66.710938 42.425781 66.8125 42.582031 66.757812 43.117188 C 66.867188 43.539062 67.453125 43.167969 67.398438 43.695312 L 53.445312 43.695312 C 53.65625 42.847656 53.183594 42.105469 53.445312 41.308594 C 52.914062 40.464844 51.59375 39.824219 51.800781 38.65625 C 52.4375 37.757812 54.507812 36.855469 54.027344 35.796875 C 55.9375 34.839844 56.894531 36.429688 58.648438 36.269531 C 59.28125 36.269531 59.96875 36.167969 60.554688 36.007812 C 59.808594 35.425781 59.175781 34.523438 58.804688 33.726562 C 55.09375 35.265625 51.484375 36.484375 47.503906 37.28125 L 47.1875 37.171875 C 46.816406 37.226562 40.773438 38.601562 40.980469 38.871094 C 38.703125 39.027344 36.050781 39.984375 35.46875 40.304688 C 35.199219 40.464844 35.152344 40.566406 35.46875 40.671875 C 37.90625 41.308594 39.921875 40.835938 43.6875 39.398438 L 43.421875 39.1875 C 43.210938 39.34375 40.136719 40.410156 38.914062 40.566406 C 37.640625 40.726562 36.527344 40.671875 35.996094 40.511719 C 35.839844 40.460938 35.839844 40.460938 35.941406 40.410156 C 38.328125 39.453125 42.945312 38.601562 43.585938 39.398438 C 43.953125 39.507812 44.21875 39.71875 44.429688 39.984375 C 44.644531 40.25 45.070312 40.140625 45.386719 40.09375 C 45.8125 39.984375 45.863281 39.613281 45.863281 39.242188 L 45.386719 39.1875 C 45.171875 39.1875 44.328125 39.296875 44.21875 39.398438 C 43.902344 39.136719 43.585938 38.871094 43.160156 38.765625 C 44.007812 38.394531 45.386719 38.078125 46.128906 38.023438 C 45.4375 38.5 45.757812 39.082031 45.386719 39.1875 L 45.863281 39.242188 C 45.863281 39.027344 45.863281 38.871094 45.96875 38.765625 C 46.445312 37.597656 48.460938 37.4375 49.46875 37.171875 C 49.46875 37.171875 48.941406 37.859375 48.570312 38.023438 C 48.460938 39.667969 47.875 41.097656 47.773438 42.742188 C 48.246094 42.742188 48.246094 43.273438 48.355469 43.59375 C 48.199219 43.859375 47.984375 43.59375 47.773438 43.640625 C 47.03125 43.273438 47.929688 42.636719 47.347656 42.105469 C 47.664062 40.78125 48.144531 39.453125 48.144531 38.078125 C 47.929688 38.078125 47.875 38.285156 47.773438 38.445312 C 47.613281 39.769531 47.242188 40.992188 46.921875 42.210938 C 47.03125 42.320312 47.296875 42.421875 47.296875 42.636719 C 46.871094 42.898438 47.296875 43.378906 47.132812 43.695312 L 42.308594 43.695312 L 41.832031 44.226562 L 49.148438 44.226562 L 49.203125 43.960938 C 48.144531 42.792969 48.515625 41.097656 49.042969 39.824219 L 50.316406 38.128906 C 51.375 37.703125 52.015625 36.429688 53.128906 36.007812 C 53.128906 36.59375 52.4375 36.800781 52.070312 37.117188 C 51.644531 38.023438 50.425781 38.128906 50.265625 39.136719 C 50.742188 39.667969 51.429688 40.039062 52.015625 40.511719 C 52.597656 40.890625 52.4375 41.679688 52.859375 42.050781 C 52.96875 42.15625 52.859375 42.375 52.757812 42.425781 Z M 52.757812 42.425781 "/>
<path style=" stroke:none;fill-rule:evenodd;fill:rgb(84.313725%,43.529412%,17.254902%);fill-opacity:1;" d="M 60.875 23.28125 C 60.660156 23.597656 60.234375 23.808594 60.503906 24.394531 C 59.96875 24.710938 60.132812 25.191406 60.289062 25.453125 C 60.023438 25.71875 59.863281 26.25 60.234375 26.566406 C 59.808594 27.046875 60.34375 27.46875 60.503906 27.625 C 60.289062 28.105469 60.503906 28.476562 60.503906 28.476562 C 60.449219 28.792969 59.863281 29.328125 59.652344 29.484375 C 59.335938 30.277344 59.445312 31.921875 59.492188 33.039062 C 60.976562 32.296875 62.464844 31.605469 63.632812 30.601562 C 62.621094 29.90625 61.828125 28.265625 60.710938 28.367188 C 60.605469 27.203125 60.132812 25.136719 61.773438 23.011719 C 61.988281 22.910156 62.304688 22.855469 62.464844 22.75 C 61.773438 22.640625 60.875 23.066406 60.234375 22.695312 C 60.234375 22.695312 60.554688 23.226562 60.875 23.28125 Z M 60.875 23.28125 "/>
<path style=" stroke:none;fill-rule:evenodd;fill:rgb(84.313725%,43.529412%,17.254902%);fill-opacity:1;" d="M 64.429688 22.75 C 64.429688 22.804688 64.640625 22.910156 64.640625 22.910156 C 64.640625 22.910156 64.847656 22.855469 64.847656 22.804688 C 64.847656 22.75 64.902344 22.585938 64.847656 22.539062 C 64.796875 22.539062 64.640625 22.484375 64.53125 22.484375 C 64.53125 22.484375 64.429688 22.695312 64.429688 22.75 L 64.320312 22.855469 L 63.578125 22.324219 L 63.679688 22.21875 C 63.679688 22.21875 64.003906 21.898438 64.160156 21.898438 C 64.320312 21.84375 65.171875 21.898438 65.382812 22.0625 C 65.542969 22.21875 65.644531 22.324219 65.859375 22.695312 C 66.441406 23.121094 67.398438 23.121094 67.976562 23.597656 C 67.875 23.753906 68.140625 24.023438 67.929688 24.125 C 67.769531 24.179688 67.398438 24.070312 67.34375 24.179688 L 67.289062 24.496094 L 67.078125 24.445312 C 67.078125 24.445312 67.183594 24.070312 67.078125 24.070312 C 66.972656 24.023438 66.757812 23.914062 66.65625 23.96875 C 66.601562 24.023438 66.65625 24.070312 66.710938 24.179688 C 66.710938 24.289062 66.972656 24.339844 67.132812 24.289062 L 67.34375 24.339844 L 67.609375 24.390625 C 67.503906 24.65625 67.453125 24.761719 67.078125 24.65625 C 66.972656 24.921875 67.554688 25.136719 67.609375 25.238281 C 67.554688 25.347656 67.453125 25.453125 67.078125 25.238281 C 67.078125 25.238281 65.542969 26.722656 64.640625 27.148438 C 63.6875 27.574219 64.585938 26.9375 64.585938 26.9375 C 65.007812 26.777344 66.867188 25.1875 66.867188 25.03125 C 66.8125 24.921875 66.710938 24.710938 66.710938 24.550781 C 66.441406 24.445312 65.914062 24.605469 65.699219 24.765625 C 65.804688 25.238281 66.65625 27.625 66.015625 31.234375 L 65.914062 31.128906 C 66.492188 27.625 65.542969 24.8125 65.542969 24.8125 C 65.007812 25.03125 64.640625 24.867188 64.375 24.921875 C 64.265625 27.101562 66.015625 27.417969 65.382812 30.277344 C 63.523438 29.960938 62.195312 27.679688 61.136719 27.894531 C 61.085938 27.519531 60.710938 26.882812 61.085938 26.675781 C 60.976562 26.359375 60.875 25.933594 61.347656 25.664062 C 61.191406 25.238281 61.136719 24.867188 61.617188 24.550781 C 61.507812 24.289062 61.5625 23.703125 62.144531 23.597656 C 62.195312 23.121094 62.414062 22.75 62.835938 22.585938 C 62.359375 22.378906 62.25 21.898438 62.25 21.898438 C 62.675781 22.167969 63.046875 22.324219 63.679688 22.21875 Z M 46.390625 62.421875 L 46.335938 59.453125 C 46.335938 58.550781 45.757812 57.59375 44.960938 57.066406 C 44.800781 57.011719 44.535156 56.90625 44.328125 56.90625 C 44.535156 56.90625 44.800781 56.90625 45.070312 56.796875 C 45.863281 56.425781 46.816406 55.421875 46.816406 53.667969 C 46.816406 52.34375 46.289062 51.332031 45.332031 50.644531 C 44.429688 50.007812 43.421875 49.847656 42.363281 49.847656 L 34.195312 49.847656 L 34.195312 51.972656 L 36.050781 51.972656 L 36.050781 62.421875 L 34.195312 62.421875 L 34.195312 64.488281 L 40.03125 64.488281 L 40.03125 62.421875 L 38.171875 62.421875 L 38.171875 57.808594 L 42.203125 57.808594 C 43.585938 57.859375 44.109375 58.757812 44.109375 59.5 L 44.273438 64.488281 L 48.25 64.488281 L 48.25 62.421875 Z M 42.625 55.789062 L 38.171875 55.789062 L 38.171875 51.972656 L 42.363281 51.972656 C 42.84375 51.972656 43.367188 51.972656 43.792969 52.132812 C 44.328125 52.398438 44.804688 52.984375 44.804688 53.882812 C 44.800781 54.996094 43.792969 55.789062 42.625 55.789062 Z M 33.453125 69.6875 C 35.359375 69.6875 36.210938 70.746094 36.210938 72.074219 C 36.210938 73.398438 35.308594 74.410156 33.289062 74.410156 L 31.914062 74.410156 L 31.914062 78.066406 L 30.695312 78.066406 L 30.695312 69.6875 Z M 31.914062 73.34375 L 33.398438 73.34375 C 34.300781 73.34375 34.9375 72.871094 34.9375 72.023438 C 34.9375 71.382812 34.566406 70.746094 33.453125 70.746094 L 31.914062 70.746094 Z M 45.703125 78.066406 L 44.378906 78.066406 L 43.316406 75.578125 L 39.65625 75.578125 L 38.652344 78.066406 L 37.324219 78.066406 L 41.035156 69.632812 L 41.882812 69.632812 Z M 40.136719 74.460938 L 42.84375 74.460938 L 41.40625 71.171875 Z M 59.652344 78.066406 L 58.433594 78.066406 L 58.433594 69.6875 L 59.652344 69.6875 Z M 68.402344 71.488281 C 67.609375 70.855469 66.867188 70.640625 66.230469 70.640625 C 65.433594 70.640625 64.800781 71.011719 64.800781 71.597656 C 64.800781 73.242188 68.71875 73.1875 68.71875 75.894531 C 68.71875 77.164062 67.660156 78.121094 66.175781 78.121094 C 65.21875 78.121094 64.375 77.910156 63.632812 77.378906 L 63.632812 75.839844 C 64.320312 76.636719 65.171875 77.0625 66.070312 77.0625 C 67.078125 77.0625 67.554688 76.476562 67.554688 76 C 67.554688 74.300781 63.578125 74.085938 63.578125 71.804688 C 63.578125 70.429688 64.691406 69.578125 66.332031 69.578125 C 67.078125 69.578125 67.714844 69.742188 68.402344 70.164062 Z M 54.507812 77.0625 C 54.351562 76.84375 54.1875 76.636719 54.03125 76.367188 C 53.394531 75.308594 52.859375 74.566406 52.070312 74.085938 C 53.023438 73.714844 53.554688 72.972656 53.554688 72.023438 C 53.554688 70.589844 52.441406 69.6875 50.632812 69.6875 L 48.460938 69.6875 L 48.460938 78.066406 L 49.734375 78.066406 L 49.734375 74.410156 L 50.265625 74.410156 C 50.898438 74.410156 51.429688 74.617188 52.542969 76.320312 L 53.710938 78.066406 L 55.148438 78.066406 Z M 50.53125 73.34375 L 49.734375 73.34375 L 49.734375 70.695312 L 50.53125 70.695312 C 51.75 70.695312 52.226562 71.171875 52.226562 71.96875 C 52.28125 72.65625 51.910156 73.34375 50.53125 73.34375 Z M 50.53125 73.34375 "/>
</g>
</svg>
